<?xml version="1.0" encoding="UTF-8"?>
<svg id="Layer_1" xmlns="http://www.w3.org/2000/svg" version="1.1" viewBox="0 0 1080 1080">
  <!-- Generator: Adobe Illustrator 29.8.3, SVG Export Plug-In . SVG Version: 2.1.1 Build 3)  -->
  <defs>
    <style>
      .st0 {
        fill: #383938;
      }

      .st1 {
        fill: #a77d52;
      }
    </style>
  </defs>
  <g>
    <g>
      <path class="st1" d="M320.94,349.8c-6.34-7.6-9.5-16.47-9.5-26.61v-141.93c0-.42.43-.63,1.27-.63,11.41,0,21.23,4.12,29.46,12.36,8.24,8.24,12.36,18.06,12.36,29.46v100.74c0,7.19,1.69,13.84,5.07,19.96,3.39,6.13,8.14,10.99,14.26,14.57,6.11,3.58,12.74,5.59,19.89,6.01v1.28c-10.95.44-20.22,4.56-27.81,12.35-7.6,7.82-11.4,17.22-11.4,28.2v250.91c0,11.41-4.12,21.23-12.36,29.46-8.24,8.24-18.06,12.36-29.46,12.36-.84,0-1.27-.43-1.27-1.27v-291.46c0-6.75,1.48-12.99,4.43-18.69,2.96-5.7,6.97-10.55,12.04-14.57,5.07-4.01,10.77-6.65,17.11-7.92-9.71-2.11-17.74-6.97-24.08-14.57Z"/>
      <path class="st1" d="M519.51,182.82c.84,0,1.27.22,1.27.63v401.71c0,.42-.43.63-1.27.63-11.4,0-21.22-4.01-29.46-12.04-8.24-8.02-12.36-17.95-12.36-29.78v-157.13c0-5.07-1.9-9.5-5.7-13.31-3.8-3.8-8.45-5.7-13.94-5.7-2.53,0-4.97.43-7.29,1.27-2.33.85-4.44,2.22-6.34,4.12-1.9,1.9-3.28,4.02-4.12,6.34-.85,2.33-1.49,4.75-1.9,7.29v157.13c0,11.83-4.02,21.76-12.04,29.78-8.03,8.03-17.96,12.04-29.78,12.04-.43,0-.63-.22-.63-.63V183.45c0-.42.21-.63.63-.63,11.82,0,21.75,4.12,29.78,12.36,8.02,8.24,12.04,18.06,12.04,29.46v121.65c.42,5.5,2.53,10.14,6.34,13.94,3.8,3.8,8.34,5.7,13.62,5.7s9.82-1.9,13.62-5.7c3.8-3.8,5.7-8.44,5.7-13.94v-121.65c0-11.41,4.12-21.23,12.36-29.46,8.24-8.24,18.06-12.36,29.46-12.36Z"/>
      <path class="st1" d="M759.5,349.8c6.34-7.6,9.5-16.47,9.5-26.61v-141.93c0-.42-.43-.63-1.27-.63-11.41,0-21.23,4.12-29.46,12.36-8.24,8.24-12.36,18.06-12.36,29.46v100.74c0,7.19-1.69,13.84-5.07,19.96-3.39,6.13-8.14,10.99-14.26,14.57-6.11,3.58-12.74,5.59-19.89,6.01v1.28c10.95.44,20.22,4.56,27.81,12.35,7.6,7.82,11.4,17.22,11.4,28.2v250.91c0,11.41,4.12,21.23,12.36,29.46,8.24,8.24,18.06,12.36,29.46,12.36.84,0,1.27-.43,1.27-1.27v-291.46c0-6.75-1.48-12.99-4.43-18.69-2.96-5.7-6.97-10.55-12.04-14.57-5.07-4.01-10.77-6.65-17.11-7.92,9.71-2.11,17.74-6.97,24.08-14.57Z"/>
      <path class="st1" d="M590.39,195.17c8.24,8.24,12.36,18.06,12.36,29.46v121.65c0,5.5,1.9,10.14,5.7,13.94,3.8,3.8,8.35,5.7,13.62,5.7,5.29,0,9.82-1.9,13.62-5.7,3.8-3.8,5.92-8.44,6.34-13.94v-121.65c0-11.41,4.02-21.23,12.04-29.46,8.03-8.24,17.96-12.36,29.78-12.36.43,0,.63.22.63.63v401.71c0,.42-.21.63-.63.63-11.82,0-21.75-4.01-29.78-12.04-8.02-8.02-12.04-17.95-12.04-29.78v-157.13c-.42-2.53-1.05-4.96-1.9-7.29-.84-2.32-2.22-4.44-4.12-6.34-1.9-1.9-4.01-3.27-6.34-4.12-2.32-.84-4.75-1.27-7.29-1.27-5.49,0-10.14,1.9-13.94,5.7-3.8,3.8-5.7,8.24-5.7,13.31v157.13c0,11.83-4.12,21.76-12.36,29.78-8.24,8.03-18.06,12.04-29.46,12.04-.84,0-1.27-.22-1.27-.63V183.45c0-.42.43-.63,1.27-.63,11.4,0,21.22,4.12,29.46,12.36Z"/>
    </g>
    <g>
      <path class="st1" d="M396.58,615.57h3.8v22.02h33.97v-22.02h3.83v48.49h-3.83v-22.02h-33.97v22.02h-3.8v-48.49Z"/>
      <path class="st1" d="M446.5,651.94h3.8v2.23c0,1.5.52,2.85,1.36,3.84.87.98,2.02,1.6,3.31,1.6,2.57,0,4.67-2.45,4.67-5.46,0-6.22-2.99-9.47-5.95-12.72-3.59-3.92-7.19-7.84-7.19-15.98,0-5.43,3.8-9.89,8.47-9.89s8.5,4.45,8.5,9.89v2.23h-3.83v-2.23c0-2.99-2.1-5.44-4.67-5.44s-4.67,2.45-4.67,5.44c0,6.23,2.99,9.48,5.98,12.74,3.59,3.92,7.19,7.84,7.19,15.96,0,5.44-3.83,9.9-8.5,9.9-2.33,0-4.46-1.11-6.01-2.91-1.52-1.78-2.47-4.26-2.47-6.98v-2.23Z"/>
      <path class="st1" d="M471.68,615.57h3.8v48.49h-3.8v-48.49Z"/>
      <path class="st1" d="M488.89,664.06h-3.8v-48.49h2.68l35.1,41.41v-40.86h3.8v47.94h-3.15l-34.63-40.86v40.86Z"/>
      <path class="st1" d="M553.87,615.57h3.8v22.02h33.97v-22.02h3.83v48.49h-3.83v-22.02h-33.97v22.02h-3.8v-48.49Z"/>
      <path class="st1" d="M603.79,651.94h3.8v2.23c0,1.5.52,2.85,1.36,3.84.87.98,2.02,1.6,3.31,1.6,2.57,0,4.67-2.45,4.67-5.46,0-6.22-2.99-9.47-5.95-12.72-3.59-3.92-7.19-7.84-7.19-15.98,0-5.43,3.8-9.89,8.47-9.89s8.5,4.45,8.5,9.89v2.23h-3.83v-2.23c0-2.99-2.1-5.44-4.67-5.44s-4.67,2.45-4.67,5.44c0,6.23,2.99,9.48,5.98,12.74,3.59,3.92,7.19,7.84,7.19,15.96,0,5.44-3.83,9.9-8.5,9.9-2.33,0-4.46-1.11-6.01-2.91-1.52-1.78-2.47-4.26-2.47-6.98v-2.23Z"/>
      <path class="st1" d="M628.97,615.57h3.8v48.49h-3.8v-48.49Z"/>
      <path class="st1" d="M646.18,664.06h-3.8v-48.49h2.68l35.1,41.41v-40.86h3.8v47.94h-3.15l-34.63-40.86v40.86Z"/>
    </g>
  </g>
  <g>
    <path class="st0" d="M309.03,856.25l-2.51-2.14c7.4-21.12,8.35-36.62,8.35-53.56v-43.18h13.84v5.73c11.92-3.82,23.61-10.98,23.61-10.98l10.86,10.38c-10.02,3.82-25.06,5.49-34.47,6.2v21.71h23.5c2.38,0,2.86.12,4.89-1.91l2.03,2.86c3.93-7.99,9.66-22.07,12.64-41.27l15.03,3.34s-1.56,6.56-5.01,15.15h19.32l.48-2.98h15.99s-4.77,17.18-20.75,28.75l-3.58-2.03s3.93-6.08,6.68-17.89h-20.75c-4.54,9.54-11.21,20.04-20.76,26.72l-3.22-2.39s.72-1.07,1.79-3.22c-.83.48-1.9.72-3.22.72h-2.63v54.75h-13.48v-54.75h-8.94v1.55c0,19.92-5.73,44.38-19.69,58.45ZM388,816.76c-3.82,14.43-14.56,31.49-37.22,40.8l-2.39-3.1c21.59-18.37,27.32-37.1,27.32-54.87v-13.24h14.08v12.53c1.9,7.04,10.01,31.73,29.46,43.3l-13,12.17s-12.41-10.14-18.25-37.58Z"/>
    <path class="st0" d="M428.28,856.25l-2.51-2.14c7.4-21.12,8.35-36.62,8.35-53.56v-43.18h13.84v5.73c11.92-3.82,23.61-10.98,23.61-10.98l10.86,10.38c-10.02,3.82-25.06,5.49-34.47,6.2v21.71h23.5c2.38,0,2.86.12,4.89-1.91l2.03,2.86c3.93-7.99,9.66-22.07,12.64-41.27l15.03,3.34s-1.56,6.56-5.01,15.15h19.32l.48-2.98h15.99s-4.77,17.18-20.75,28.75l-3.58-2.03s3.93-6.08,6.68-17.89h-20.75c-4.54,9.54-11.21,20.04-20.76,26.72l-3.22-2.39s.72-1.07,1.79-3.22c-.83.48-1.9.72-3.22.72h-2.63v54.75h-13.48v-54.75h-8.94v1.55c0,19.92-5.73,44.38-19.69,58.45ZM507.26,816.76c-3.82,14.43-14.56,31.49-37.22,40.8l-2.39-3.1c21.59-18.37,27.32-37.1,27.32-54.87v-13.24h14.08v12.53c1.9,7.04,10.01,31.73,29.46,43.3l-13,12.17s-12.41-10.14-18.25-37.58Z"/>
    <path class="st0" d="M606,758.79c4.41,3.94,23.61,20.4,51.41,27.56l-11.21,14.91s-27.91-10.26-42.47-38.17c-17.06,28.51-55.94,39.96-55.94,39.96l-2.75-3.7c36.75-20.76,46.65-49.27,46.65-49.27l16.7,3.22c-.71,1.91-1.55,3.7-2.38,5.49ZM655.27,848.14c-1.43,1.43-3.46,3.46-6.8,3.46h-99.97v-6.44h18.37v-46.52h14.67v46.52h15.15v-60.72h15.51v25.41h23.5c2.39,0,2.86,0,4.89-2.03l3.93,4.89c-1.43,1.43-3.34,3.34-6.8,3.34h-25.52v29.11h34.24c2.39,0,2.86.12,4.89-2.15l3.94,5.13Z"/>
    <path class="st0" d="M773.56,774.65c-1.55,1.43-3.58,3.46-7.16,3.46h-29.7l9.54,4.06c.48-.48-3.22,5.01-10.02,10.26h26.12c2.51,0,3.1.12,5.13-2.03l3.58,4.89c-1.43,1.31-3.47,3.34-7.16,3.34h-37.22v8.23h30.54c2.63,0,3.1.12,5.25-2.03l3.58,4.89c-1.55,1.43-3.58,3.34-7.16,3.34h-32.21v10.26h37.58c2.63,0,3.1,0,5.13-2.14l3.7,4.89c-1.55,1.43-3.58,3.34-7.16,3.34h-31.85c7.88,5.01,20.76,10.97,39.85,13.12l-8.59,12.65s-25.4-6.32-37.46-25.77h-1.19v27.32h-13.6v-23.5c-11.69,10.02-29.47,18.49-48.9,23.02l-1.19-3.34c12.88-5.97,25.65-14.2,35.67-23.5h-29.59v-6.09h44.02v-10.26h-37.1v-6.2h37.1v-8.23h-42.11v-6.2h30.3c-4.06-6.32-8.59-11.93-8.59-11.93l2.03-2.39h-28.87v-6.2h20.99c-3.58-8.47-8.59-17.06-8.59-17.06l2.74-2.15c13.6,4.65,18.01,12.17,18.01,12.17l-7.99,7.04h11.92v-21.11h12.17v21.11h10.5v-21.11h12.29v21.11h4.89c1.55-3.1,5.01-10.5,7.99-19.2l11.81,5.49c.72-.71-3.82,7.4-12.88,13.72h15.03c2.63,0,3.1,0,5.13-2.03l3.69,4.77ZM712.36,786.46l-5.01,5.97h20.99c1.67-3.1,3.7-7.76,5.13-14.32h-38.76c12.76,2.27,17.65,8.35,17.65,8.35Z"/>
  </g>
</svg>