<?xml version="1.0" encoding="UTF-8"?>
<svg id="Layer_1" xmlns="http://www.w3.org/2000/svg" version="1.1" viewBox="0 0 1080 1080">
  <!-- Generator: Adobe Illustrator 29.8.3, SVG Export Plug-In . SVG Version: 2.1.1 Build 3)  -->
  <defs>
    <style>
      .st0 {
        fill: #383938;
        font-family: FZLTDHK--GBK1-0, FZLanTingHei-EB-GBK;
        font-size: 61.01px;
        letter-spacing: .37em;
      }

      .st1 {
        fill: #5887da;
      }

      .st2 {
        font-family: Denmark, Denmark;
        font-size: 151.06px;
      }

      .st3, .st4 {
        fill: #636569;
      }

      .st4 {
        font-family: Roboto-Regular, Roboto;
        font-size: 50.23px;
        letter-spacing: 0em;
      }
    </style>
  </defs>
  <path class="st3" d="M386.99,519.1l.03-83.55c0-1.52-.42-2.97-1.16-4.24-.72-1.27-1.77-2.34-3.08-3.1l-67.34-38.85-77.37-44.7c-1.31-.76-2.78-1.12-4.24-1.12-.02,0-.03,0-.05,0-1.44,0-2.89.37-4.19,1.12l-77.48,44.76-67.24,38.79c-1.31.75-2.35,1.83-3.08,3.1-.01.02-.03.03-.04.05-.1.17-.15.38-.23.56-.23.47-.46.93-.6,1.44-.07.25-.06.52-.11.78-.08.46-.19.91-.19,1.38v.02s0,.02,0,.02l.03,83.55-.03,83.55c0,1.52.42,2.98,1.16,4.24,0,.01,0,.03.02.04.72,1.25,1.76,2.31,3.06,3.05l140.12,80.9,4.6,2.66c1.3.75,2.74,1.12,4.18,1.12.02,0,.03,0,.05,0s.03,0,.05,0c1.44,0,2.89-.37,4.18-1.12l77.48-44.76,67.24-38.79c1.31-.75,2.35-1.83,3.08-3.1.74-1.26,1.16-2.72,1.16-4.24l-.03-83.55ZM370.25,597.86l-65.6,37.9-62.5,36.06v-305.45l62.4,36,65.7,37.96.03,78.76-.03,78.76ZM97.42,450.18l117.37,68.93-117.37,69.03-.02-69.03.02-68.92ZM225.42,366.43v139.52l-119.81-70.35,59.27-34.25,60.53-34.92ZM105.71,602.65l119.71-70.4v139.52l-62.11-35.83-57.6-33.28Z"/>
  <path class="st1" d="M233.88,694.66c-1.44,0-2.89-.37-4.18-1.12-2.59-1.49-4.18-4.25-4.18-7.24v-334.4c0-2.99,1.59-5.75,4.18-7.24,2.59-1.5,5.77-1.5,8.36,0l144.78,83.65c2.58,1.49,4.17,4.24,4.18,7.21s-1.56,5.73-4.13,7.24l-130.02,76.35,129.97,76.43c2.56,1.51,4.13,4.26,4.12,7.24-.01,2.97-1.6,5.72-4.18,7.21l-144.72,83.56c-1.29.75-2.74,1.12-4.18,1.12ZM242.24,532.25v139.57l119.76-69.14-119.76-70.43ZM242.24,366.38v139.57l119.81-70.35-119.81-69.22Z"/>
  <g>
    <text class="st0" transform="translate(435.52 634.3)"><tspan x="0" y="0">網頁與平面設計</tspan></text>
    <text class="st2" transform="translate(426.65 513.39)"><tspan class="st1" x="0" y="0">Blu</tspan><tspan class="st3" x="233.99" y="0">luma</tspan></text>
    <text class="st4" transform="translate(434.2 564.07)"><tspan x="0" y="0">WEB / GRAPHIC DESIGN</tspan></text>
  </g>
</svg>